<svg id="Layer_1" data-name="Layer 1" xmlns="http://www.w3.org/2000/svg" xmlns:xlink="http://www.w3.org/1999/xlink" viewBox="0 0 226.91 135.21"><defs><style>.cls-1{fill:url(#Degradado_sin_nombre_9);}.cls-2{fill:url(#Degradado_sin_nombre_9-2);}.cls-3{fill:url(#Degradado_sin_nombre_8);}.cls-4{fill:url(#Degradado_sin_nombre_8-2);}.cls-5{fill:url(#Degradado_sin_nombre_7);}.cls-6{fill:url(#Degradado_sin_nombre_6);}.cls-7{fill:url(#Degradado_sin_nombre_5);}.cls-8{fill:url(#Degradado_sin_nombre_4);}.cls-9{fill:url(#Degradado_sin_nombre_3);}.cls-10{fill:url(#Degradado_sin_nombre_2);}</style><linearGradient id="Degradado_sin_nombre_9" x1="139.42" y1="131.42" x2="135.06" y2="70.72" gradientUnits="userSpaceOnUse"><stop offset="0" stop-color="#6b6225"/><stop offset="1" stop-color="#524c1b"/></linearGradient><linearGradient id="Degradado_sin_nombre_9-2" x1="65.67" y1="136.72" x2="61.31" y2="76.02" xlink:href="#Degradado_sin_nombre_9"/><linearGradient id="Degradado_sin_nombre_8" x1="130.59" y1="59.24" x2="142.65" y2="138.8" gradientUnits="userSpaceOnUse"><stop offset="0" stop-color="#524c1b"/><stop offset="0.48" stop-color="#8e8134"/><stop offset="1" stop-color="#6b6225"/></linearGradient><linearGradient id="Degradado_sin_nombre_8-2" x1="47.02" y1="101.77" x2="82.15" y2="122.97" xlink:href="#Degradado_sin_nombre_8"/><linearGradient id="Degradado_sin_nombre_7" x1="86.11" y1="128.38" x2="130.24" y2="55.14" gradientUnits="userSpaceOnUse"><stop offset="0" stop-color="#f3921a"/><stop offset="1" stop-color="#d66323"/></linearGradient><linearGradient id="Degradado_sin_nombre_6" x1="48.49" y1="83" x2="20.32" y2="136.21" gradientUnits="userSpaceOnUse"><stop offset="0" stop-color="#f3921a"/><stop offset="1" stop-color="#f7b50d"/></linearGradient><linearGradient id="Degradado_sin_nombre_5" x1="211.11" y1="23.35" x2="147.59" y2="139.27" gradientUnits="userSpaceOnUse"><stop offset="0" stop-color="#7a171e"/><stop offset="1" stop-color="#d02036"/></linearGradient><linearGradient id="Degradado_sin_nombre_4" x1="83.99" y1="128.38" x2="128.12" y2="55.14" gradientUnits="userSpaceOnUse"><stop offset="0" stop-color="#d66323"/><stop offset="1" stop-color="#f9b212"/></linearGradient><linearGradient id="Degradado_sin_nombre_3" x1="46.37" y1="83" x2="18.21" y2="136.21" gradientUnits="userSpaceOnUse"><stop offset="0" stop-color="#ffd400"/><stop offset="1" stop-color="#f3921a"/></linearGradient><linearGradient id="Degradado_sin_nombre_2" x1="208.99" y1="23.35" x2="145.47" y2="139.27" gradientUnits="userSpaceOnUse"><stop offset="0" stop-color="#e11a35"/><stop offset="1" stop-color="#7a171e"/></linearGradient></defs><polygon class="cls-1" points="162.95 135.21 126.43 135.21 110.67 54.97 147.19 54.97 162.95 135.21"/><polygon class="cls-2" points="99.14 135.21 63.02 135.21 28.59 87.71 64.7 87.71 99.14 135.21"/><polygon class="cls-3" points="161.38 135.21 126.43 135.21 110.67 54.97 145.62 54.97 161.38 135.21"/><polygon class="cls-4" points="97.57 135.21 63.02 135.21 28.59 87.71 63.13 87.71 97.57 135.21"/><polygon class="cls-5" points="99.54 135.21 65.14 135.21 112.79 54.97 147.19 54.97 99.54 135.21"/><polygon class="cls-6" points="2.12 135.21 36.52 135.21 64.73 87.71 30.33 87.71 2.12 135.21"/><polygon class="cls-7" points="226.91 53.38 225.6 0 223.48 0 178.18 24.55 190.2 31.66 128.54 135.21 162.95 135.21 215.64 46.72 224.79 53.38 226.91 53.38"/><polygon class="cls-8" points="97.42 135.21 63.02 135.21 110.67 54.97 145.07 54.97 97.42 135.21"/><polygon class="cls-9" points="0 135.21 34.4 135.21 62.61 87.71 28.21 87.71 0 135.21"/><polygon class="cls-10" points="224.79 53.38 223.48 0 176.06 24.55 188.08 31.66 126.43 135.21 160.83 135.21 213.52 46.72 224.79 53.38"/></svg>